<?xml version="1.0" encoding="UTF-8" standalone="no"?>
<!-- Created with Inkscape (http://www.inkscape.org/) -->

<svg
   width="200mm"
   height="42.896008mm"
   viewBox="0 0 200 42.896008"
   version="1.1"
   id="svg5"
   xmlns="http://www.w3.org/2000/svg"
   xmlns:svg="http://www.w3.org/2000/svg">
  <defs
     id="defs2">
    <rect
       x="82.617447"
       y="158.05077"
       width="332.26581"
       height="141.88647"
       id="rect627" />
  </defs>
  <g
     id="layer1">
    <g
       aria-label="orllewin"
       transform="matrix(0.62757501,0,0,0.62757501,-53.776394,-120.11161)"
       id="text625"
       style="font-size:96px;line-height:1.25;font-family:'delarge marker pen';-inkscape-font-specification:'delarge marker pen';white-space:pre;shape-inside:url(#rect627)">
      <path
         d="m 133.49719,234.59004 c 0,-14.496 -9.792,-25.152 -23.904,-25.152 -14.112002,0 -23.904002,10.656 -23.904002,25.152 0,14.496 9.792,25.152 23.904002,25.152 14.112,0 23.904,-10.656 23.904,-25.152 z m -23.904,17.664 c -8.832,0 -15.648002,-6.528 -15.648002,-17.664 0,-11.136 6.816002,-17.664 15.648002,-17.664 8.832,0 15.648,6.528 15.648,17.664 0,11.136 -6.816,17.664 -15.648,17.664 z"
         style="font-family:'Cymru Sans Headline';-inkscape-font-specification:'Cymru Sans Headline'"
         id="path9201" />
      <path
         d="m 174.17569,212.60604 c -2.304,-1.728 -4.8,-3.168 -8.832,-3.168 -7.008,0 -13.152,4.128 -15.072,11.52 v -10.368 h -8.256 v 48 h 8.256 v -22.752 c 0,-11.04 5.376,-18.912 13.92,-18.912 2.784,0 4.992,1.056 6.624,2.304 z"
         style="font-family:'Cymru Sans Headline';-inkscape-font-specification:'Cymru Sans Headline'"
         id="path9203" />
      <path
         d="m 181.01569,242.65404 c 0,8.544 0.768,12.768 2.304,15.936 h 8.256 c -1.44,-2.4 -2.304,-6.816 -2.304,-15.936 v -51.264 h -8.256 z"
         style="font-family:'Cymru Sans Headline';-inkscape-font-specification:'Cymru Sans Headline'"
         id="path9205" />
      <path
         d="m 200.70319,242.65404 c 0,8.544 0.768,12.768 2.304,15.936 h 8.256 c -1.44,-2.4 -2.304,-6.816 -2.304,-15.936 v -51.264 h -8.256 z"
         style="font-family:'Cymru Sans Headline';-inkscape-font-specification:'Cymru Sans Headline'"
         id="path9207" />
      <path
         d="m 261.64819,236.51004 c 0.48,-2.016 0.672,-3.936 0.672,-6.72 0,-11.424 -8.256,-20.352 -21.024,-20.352 -13.248,0 -23.232,11.136 -23.232,25.152 0,14.016 9.504,25.152 24.096,25.152 8.352,0 14.304,-3.264 19.488,-9.408 l -4.896,-5.184 c -4.032,4.992 -8.832,7.104 -14.592,7.104 -7.968,0 -15.072,-5.472 -15.84,-15.744 z m -20.352,-19.968 c 8.16,0 13.056,5.76 13.344,13.152 h -27.936 c 1.536,-8.352 7.2,-13.152 14.592,-13.152 z"
         style="font-family:'Cymru Sans Headline';-inkscape-font-specification:'Cymru Sans Headline'"
         id="path9209" />
      <path
         d="m 289.27369,258.59004 10.944,-37.248 10.944,37.248 h 8.64 l 15.936,-48 h -8.256 l -12.096,37.536 -11.04,-37.536 h -8.256 l -11.04,37.536 -12.096,-37.536 h -8.256 l 15.936,48 z"
         style="font-family:'Cymru Sans Headline';-inkscape-font-specification:'Cymru Sans Headline'"
         id="path9211" />
      <path
         d="m 350.98819,258.59004 v -48 h -8.256 v 48 z m -9.792,-60.768 c 0,3.168 2.496,5.664 5.664,5.664 3.168,0 5.664,-2.496 5.664,-5.664 0,-3.168 -2.496,-5.664 -5.664,-5.664 -3.168,0 -5.664,2.496 -5.664,5.664 z"
         style="font-family:'Cymru Sans Headline';-inkscape-font-specification:'Cymru Sans Headline'"
         id="path9213" />
      <path
         d="m 404.37619,233.24604 c 0,-15.36 -6.24,-23.808 -17.856,-23.808 -7.488,0 -13.536,4.32 -15.936,11.808 v -10.656 h -8.256 v 48 h 8.256 v -23.04 c 0,-11.616 5.952,-18.816 13.92,-18.816 8.16,0 11.616,6.528 11.616,16.896 v 24.96 h 8.256 z"
         style="font-family:'Cymru Sans Headline';-inkscape-font-specification:'Cymru Sans Headline'"
         id="path9215" />
    </g>
  </g>
</svg>
