<?xml version="1.0" encoding="UTF-8" standalone="no"?>
<!-- Created with Inkscape (http://www.inkscape.org/) -->

<svg
   width="105.48796mm"
   height="23.966642mm"
   viewBox="0 0 105.48796 23.966642"
   version="1.1"
   id="svg5"
   xmlns="http://www.w3.org/2000/svg"
   xmlns:svg="http://www.w3.org/2000/svg">
  <defs
     id="defs2">
    <rect
       x="23.34841"
       y="109.55792"
       width="659.14355"
       height="380.75867"
       id="rect1903" />
  </defs>
  <g
     id="layer1"
     transform="matrix(0.52743979,0,0,0.52743979,-5.7283127,-4.4088706)">
    <g
       aria-label="seren"
       transform="matrix(0.90329951,0,0,0.90329951,-11.616794,-227.84036)"
       id="text1901"
       style="font-size:192px;line-height:1.25;font-family:'delarge marker pen';-inkscape-font-specification:'delarge marker pen';white-space:pre;shape-inside:url(#rect1903)">
      <path
         d="m 51.763656,297.3891 c 0,4.512 -3.648,6.912 -8.352,6.912 -4.512,0 -9.504,-2.304 -12.864,-8.256 l -5.664,5.472 c 2.592,5.088 9.792,10.272 18.528,10.272 9.12,0 16.416,-5.376 16.416,-14.592 0,-6.432 -4.416,-10.56 -13.536,-14.208 -7.488,-2.976 -11.808,-5.568 -11.808,-8.928 0,-3.36 3.36,-5.664 8.64,-5.664 4.224,0 8.064,2.4 11.424,6.048 l 4.32,-5.568 c -3.552,-4.128 -8.256,-7.392 -15.648,-7.392 -8.256,0 -16.32,4.416 -16.32,12.864 0,7.296 6.336,11.424 14.016,14.208 6.816,2.592 10.848,5.28 10.848,8.832 z"
         style="font-size:96px;font-family:'Cymru Sans Body';-inkscape-font-specification:'Cymru Sans Body'"
         id="path5601" />
      <path
         d="m 109.37866,288.5571 c 0.48,-2.016 0.672,-3.936 0.672,-6.72 0,-11.424 -8.256,-20.352 -21.024004,-20.352 -13.248,0 -23.232,11.136 -23.232,25.152 0,14.016 9.504,25.152 24.096,25.152 8.352,0 14.304004,-3.264 19.488004,-9.408 l -4.896,-5.184 c -4.032,4.992 -8.832004,7.104 -14.592004,7.104 -7.968,0 -15.072,-5.472 -15.84,-15.744 z m -20.352004,-19.968 c 8.16,0 13.056004,5.76 13.344004,13.152 H 74.434656 c 1.536,-8.352 7.2,-13.152 14.592,-13.152 z"
         style="font-size:96px;font-family:'Cymru Sans Body';-inkscape-font-specification:'Cymru Sans Body'"
         id="path5603" />
      <path
         d="m 150.71866,264.6531 c -2.304,-1.728 -4.8,-3.168 -8.832,-3.168 -7.008,0 -13.152,4.128 -15.072,11.52 v -10.368 h -8.256 v 48 h 8.256 v -22.752 c 0,-11.04 5.376,-18.912 13.92,-18.912 2.784,0 4.992,1.056 6.624,2.304 z"
         style="font-size:96px;font-family:'Cymru Sans Body';-inkscape-font-specification:'Cymru Sans Body'"
         id="path5605" />
      <path
         d="m 195.06616,288.5571 c 0.48,-2.016 0.672,-3.936 0.672,-6.72 0,-11.424 -8.256,-20.352 -21.024,-20.352 -13.248,0 -23.232,11.136 -23.232,25.152 0,14.016 9.504,25.152 24.096,25.152 8.352,0 14.304,-3.264 19.488,-9.408 l -4.896,-5.184 c -4.032,4.992 -8.832,7.104 -14.592,7.104 -7.968,0 -15.072,-5.472 -15.84,-15.744 z m -20.352,-19.968 c 8.16,0 13.056,5.76 13.344,13.152 h -27.936 c 1.536,-8.352 7.2,-13.152 14.592,-13.152 z"
         style="font-size:96px;font-family:'Cymru Sans Body';-inkscape-font-specification:'Cymru Sans Body'"
         id="path5607" />
      <path
         d="m 246.29416,285.2931 c 0,-15.36 -6.24,-23.808 -17.856,-23.808 -7.488,0 -13.536,4.32 -15.936,11.808 v -10.656 h -8.256 v 48 h 8.256 v -23.04 c 0,-11.616 5.952,-18.816 13.92,-18.816 8.16,0 11.616,6.528 11.616,16.896 v 24.96 h 8.256 z"
         style="font-size:96px;font-family:'Cymru Sans Body';-inkscape-font-specification:'Cymru Sans Body'"
         id="path5609" />
    </g>
  </g>
</svg>
